<?xml version="1.0" encoding="utf-8"?>
<!-- Generator: Adobe Illustrator 19.0.1, SVG Export Plug-In . SVG Version: 6.00 Build 0)  -->
<svg version="1.1" xmlns="http://www.w3.org/2000/svg" xmlns:xlink="http://www.w3.org/1999/xlink" x="0px" y="0px"
	 viewBox="0 0 200 200" style="enable-background:new 0 0 200 200;" xml:space="preserve">
<style type="text/css">
	.st0{fill:#FFFFFF;}
	.st1{fill:#0033A0;}
	.st2{fill:#0099FF;}
	.st3{fill:#FFCD00;}
	.st4{fill:#97D700;}
	.st5{fill:#E40028;}
	.st6{fill:#E6E6E6;}
	.st7{fill:#EA7600;}
	.st8{fill:#007A33;}
	.st9{fill:#981D97;}
</style>
<g id="Layer_1">
</g>
<g id="Layer_2">
	<path class="st2" d="M134.7,105.9V125c0,4.8-1.7,8.8-5.1,12.2c-3.4,3.4-7.5,5.1-12.2,5.1h-50c-4.8,0-8.8-1.7-12.2-5.1
		c-3.4-3.4-5.1-7.5-5.1-12.2V75c0-4.8,1.7-8.8,5.1-12.2c3.4-3.4,7.5-5.1,12.2-5.1h50c2.5,0,4.9,0.5,7,1.5c0.6,0.3,1,0.7,1.1,1.4
		c0.1,0.7-0.1,1.3-0.5,1.7l-2.9,2.9c-0.4,0.4-0.9,0.6-1.4,0.6c-0.1,0-0.3,0-0.5-0.1c-0.9-0.2-1.8-0.4-2.7-0.4h-50
		c-2.6,0-4.9,0.9-6.8,2.8s-2.8,4.1-2.8,6.8v50c0,2.6,0.9,4.9,2.8,6.8c1.9,1.9,4.1,2.8,6.8,2.8h50c2.6,0,4.9-0.9,6.8-2.8
		c1.9-1.9,2.8-4.1,2.8-6.8v-15.3c0-0.5,0.2-1,0.5-1.3l3.8-3.8c0.4-0.4,0.9-0.6,1.4-0.6c0.2,0,0.5,0.1,0.7,0.2
		C134.3,104.5,134.7,105.1,134.7,105.9z M148.6,76.5l-48.9,48.9c-1,1-2.1,1.4-3.4,1.4c-1.3,0-2.5-0.5-3.4-1.4L66.9,99.6
		c-1-1-1.4-2.1-1.4-3.4c0-1.3,0.5-2.5,1.4-3.4l6.6-6.6c1-1,2.1-1.4,3.4-1.4c1.3,0,2.5,0.5,3.4,1.4l15.8,15.8L135.1,63
		c1-1,2.1-1.4,3.4-1.4c1.3,0,2.5,0.5,3.4,1.4l6.6,6.6c1,1,1.4,2.1,1.4,3.4C150,74.4,149.5,75.5,148.6,76.5z"/>
</g>
</svg>
