<?xml version="1.0" encoding="utf-8"?>
<!-- Generator: Adobe Illustrator 21.0.2, SVG Export Plug-In . SVG Version: 6.00 Build 0)  -->
<svg version="1.1" id="Layer_1" xmlns="http://www.w3.org/2000/svg" xmlns:xlink="http://www.w3.org/1999/xlink" x="0px" y="0px"
	 viewBox="0 0 300 300" style="enable-background:new 0 0 300 300;" xml:space="preserve">
<path d="M253.7,83.6c-0.6-3.1-1.6-7-3.1-11.7c-1.5-4.7-14.4-31.5-17.6-30.9c-1.3,0.2-22,20-37.3,24.4c-6.2,1.8-12.4,4.9-19.7,6.5
	c-7.3,1.7-14.6,3.2-21.9,4.6c-7.3,1.4-14.7,3.1-22,5c-7.3,1.9-13.1,4-17.3,6.3c-8.5,4.6-16.2,10-23.1,16.3c-7,6.3-13,13.2-18,20.9
	c-5.1,7.6-8.6,16.1-10.7,25.4c-2.1,9.3-2.2,18.7-0.6,28.1c0.8,4.4,1.9,8.6,3.4,12.6c0.1,0.2,0.2,0.5,0.4,0.9
	c7.6-12.8,14.9-26.3,22.7-34.1c10.2-10.3,17.9-16.7,32-24c14.1-7.3,28.5-12.8,45.6-17C199,109,220,81,220,81s-4,33-52.1,48.2
	c-20.6,6.5-30.7,13.1-43.3,20.4c-12.6,7.3-24.8,18.3-36.8,33c-1.7,2.2-4.6,6.1-8.7,11.6c-3,4.1-7,8.8-9.8,12c-0.2,0.3-0.4,0.6-0.7,1
	c-2.1,2.8-4.5,5.6-7.2,8.4c-2.7,2.8-5,6-7,9.6c-2,3.6-2.7,6.9-2.2,9.8c0.1,0.6,0.3,1.1,0.5,1.6c0.2,0.5,0.4,0.9,0.6,1.1
	c0.2,0.2,0.5,0.6,0.9,1.1c0.4,0.5,0.8,0.9,1,1.2c1.8,2.1,3.2,3.7,4.3,4.6c1,0.9,2.5,1.7,4.4,2.3c1.9,0.6,4.1,0.7,6.5,0.2
	c2.4-0.4,4.6-2.2,6.7-5.3s3.7-6.3,5-9.8c1.2-3.4,2.6-6.6,4-9.6c1.5-3,2.9-4.6,4.2-4.8c1.9-0.3,6.1,0.5,12.7,2.5
	c6.5,2,10.5,3.1,11.8,3.3c12,1.9,24.2,1.7,36.3-0.4c18.4-3.3,35.7-10.9,51.7-22.9c16.4-12.2,29.2-25.8,38.3-40.9
	c9.1-15.1,13.9-32.2,14.4-51.3C255.6,99.5,255,91.4,253.7,83.6z"/>
</svg>
